<svg width="1000" height="520" viewBox="0 0 1000 520" fill="none" xmlns="http://www.w3.org/2000/svg" aria-hidden="true">
  <defs>
    <linearGradient id="cardA" x1="0" y1="0" x2="1" y2="1">
      <stop offset="0%" stop-color="#fff3de" stop-opacity="0.92"/>
      <stop offset="100%" stop-color="#e7f6ff" stop-opacity="0.96"/>
    </linearGradient>
    <linearGradient id="cardB" x1="0" y1="0" x2="1" y2="1">
      <stop offset="0%" stop-color="#f2fdf8" stop-opacity="0.95"/>
      <stop offset="100%" stop-color="#e7f7f6" stop-opacity="0.93"/>
    </linearGradient>
  </defs>

  <rect width="1000" height="520" fill="#eff8fa"/>
  <g opacity="0.7">
    <path d="M-10 390C150 280 290 300 450 230C620 154 700 190 840 130C980 70 1000 30 1000 30V520H-10V390Z" fill="#9fd8cf" fill-opacity="0.12"/>
    <path d="M0 500C180 430 330 450 470 390C620 328 720 340 850 280C960 228 1000 190 1000 190V520H0V500Z" fill="#6f9de4" fill-opacity="0.10"/>
  </g>

  <rect x="44" y="38" width="288" height="200" rx="20" fill="url(#cardA)" stroke="#d4ebd7" stroke-width="2"/>
  <rect x="356" y="76" width="280" height="170" rx="20" fill="url(#cardB)" stroke="#c7e0df" stroke-width="2"/>
  <rect x="680" y="56" width="276" height="178" rx="20" fill="#f8efe0" fill-opacity="0.75" stroke="#f0ddbc" stroke-width="2"/>

  <g stroke="#6f8ea8" stroke-opacity="0.45" fill="none">
    <circle cx="188" cy="120" r="42" stroke-width="2"/>
    <circle cx="496" cy="150" r="32" stroke-width="2"/>
    <circle cx="818" cy="140" r="38" stroke-width="2"/>
  </g>

  <g fill="#17313f" opacity="0.65" font-family="'Noto Sans TC', 'PingFang TC', sans-serif">
    <text x="188" y="124" text-anchor="middle" font-size="26" font-weight="700">人文</text>
    <text x="496" y="152" text-anchor="middle" font-size="24" font-weight="700">治理</text>
    <text x="818" y="144" text-anchor="middle" font-size="24" font-weight="700">共生</text>
  </g>

  <g fill="#17313f" font-family="'Noto Sans TC', 'PingFang TC', sans-serif" font-size="28" font-weight="700" opacity="0.8">
    <text x="500" y="350">視覺化的社區流動</text>
    <text x="500" y="392" text-anchor="middle" font-size="22" font-weight="500" fill="#4c6476" >AI · 服務 · 商品循環</text>
  </g>

  <g stroke="#f8a07b" stroke-width="3" stroke-linecap="round" stroke-linejoin="round" opacity="0.7">
    <path d="M130 320C220 300 260 344 350 332C440 319 486 280 580 270C670 260 730 285 800 258C880 227 930 240 970 228"/>
    <path d="M170 384C250 365 320 392 390 390C470 388 520 355 610 344C700 334 760 360 840 338C900 320 964 345 1000 338"/>
  </g>
</svg>
